<svg width="117" height="117" viewBox="0 0 117 117" fill="none" xmlns="http://www.w3.org/2000/svg">
<rect width="117" height="117" fill="white"/>
<path d="M0 0H117V117H0V0Z" fill="#4C6F5E"/>
<path d="M0 23.2435H6.52522C7.32152 23.2435 8.02934 23.4057 8.64869 23.7301C9.28278 24.0398 9.77678 24.4821 10.1307 25.0573C10.4846 25.6176 10.6616 26.2664 10.6616 27.0038C10.6616 27.8443 10.4404 28.5742 9.99797 29.1936C9.57033 29.7982 9.01734 30.2184 8.33902 30.4544V30.5429C9.12057 30.7788 9.76203 31.2359 10.2634 31.9143C10.7648 32.5926 11.0155 33.4036 11.0155 34.3474C11.0155 35.1732 10.809 35.8958 10.3961 36.5151C9.99797 37.1197 9.45973 37.5916 8.7814 37.9307C8.10308 38.2552 7.35102 38.4174 6.52522 38.4174H0V23.2435ZM5.75105 29.3927C6.39988 29.3927 6.89388 29.2157 7.23305 28.8618C7.58696 28.5079 7.76391 28.0581 7.76391 27.5125C7.76391 26.9521 7.59433 26.5245 7.25516 26.2296C6.916 25.9199 6.45887 25.7651 5.88376 25.7651H2.83128V29.3927H5.75105ZM6.06072 35.8958C6.66531 35.8958 7.15931 35.7336 7.54272 35.4091C7.92612 35.07 8.11782 34.5981 8.11782 33.9935C8.11782 33.3741 7.92612 32.8728 7.54272 32.4894C7.17406 32.0912 6.63582 31.8921 5.928 31.8921H2.83128V35.8958H6.06072Z" fill="white"/>
<path d="M15.5233 23.2435H21.8716C23.361 23.2435 24.5038 23.6416 25.3001 24.4379C26.1112 25.2342 26.5167 26.2812 26.5167 27.5789C26.5167 28.4931 26.2881 29.2894 25.831 29.9678C25.3886 30.6461 24.7692 31.1475 23.9729 31.4719L26.8927 38.4174H23.8181L21.2965 32.0912H18.3546V38.4174H15.5233V23.2435ZM21.4734 29.5917C22.137 29.5917 22.631 29.4221 22.9555 29.083C23.2946 28.7291 23.4642 28.2277 23.4642 27.5789C23.4642 27.0038 23.3094 26.5614 22.9997 26.2517C22.69 25.9273 22.2181 25.7651 21.584 25.7651H18.3546V29.5917H21.4734Z" fill="white"/>
<path d="M34.6079 23.2435H37.9037L42.7921 38.4174H39.8944L38.9654 35.4313H33.3692L32.4623 38.4174H29.7195L34.6079 23.2435ZM38.1912 32.9096L36.665 27.8443C36.5175 27.3429 36.3701 26.6572 36.2226 25.7872H36.1341C35.9867 26.7162 35.8392 27.4019 35.6917 27.8443L34.1434 32.9096H38.1912Z" fill="white"/>
<path d="M46.57 23.2435H49.0695L53.7588 31.6046C53.9063 31.8405 54.1348 32.3124 54.4445 33.0202L54.5108 32.9539L54.4887 31.6931V23.2435H57.0103V38.4174H54.4887L49.7994 30.0562C49.6814 29.8645 49.4529 29.3927 49.1137 28.6406L49.0252 28.707L49.0695 29.9678V38.4174H46.57V23.2435Z" fill="white"/>
<path d="M62.0933 23.2435H67.0259C68.943 23.2435 70.4323 23.8702 71.4941 25.1236C72.5705 26.377 73.1088 28.2056 73.1088 30.6092C73.1088 33.1603 72.5779 35.0995 71.5162 36.4266C70.4544 37.7538 68.9577 38.4174 67.0259 38.4174H62.0933V23.2435ZM66.7605 35.8958C67.837 35.8958 68.6775 35.4976 69.2821 34.7013C69.8867 33.8903 70.189 32.7106 70.189 31.1622V30.0562C70.189 28.6553 69.8867 27.5936 69.2821 26.871C68.6775 26.1337 67.837 25.7651 66.7605 25.7651H64.9246V35.8958H66.7605Z" fill="white"/>
<path d="M82.1954 38.6828C81.2368 38.6828 80.3595 38.5059 79.5632 38.1519C78.7669 37.7833 78.1328 37.245 77.6609 36.5372C77.189 35.8294 76.9531 34.9741 76.9531 33.9714L76.9752 33.4847H79.9171L79.8949 33.8387C79.8949 34.576 80.1088 35.1658 80.5364 35.6082C80.9641 36.0359 81.5613 36.2497 82.3281 36.2497C83.1096 36.2497 83.6847 36.0801 84.0534 35.7409C84.4368 35.387 84.6285 34.9594 84.6285 34.458C84.6285 33.9566 84.4958 33.5511 84.2303 33.2414C83.9649 32.917 83.6331 32.6663 83.235 32.4894C82.8516 32.3124 82.306 32.106 81.5981 31.87C80.6691 31.5751 79.9171 31.2802 79.342 30.9853C78.7669 30.6903 78.2729 30.2406 77.86 29.636C77.4618 29.0314 77.2627 28.2277 77.2627 27.225C77.2627 26.3107 77.4913 25.5365 77.9484 24.9024C78.4056 24.2536 79.0175 23.7743 79.7843 23.4647C80.5511 23.1402 81.3991 22.978 82.3281 22.978C83.7732 22.978 84.9529 23.3541 85.8672 24.1061C86.7962 24.8434 87.2607 25.9568 87.2607 27.4461V27.7116H84.3631V27.5125C84.3631 26.8637 84.1787 26.3549 83.8101 25.9863C83.4414 25.6029 82.94 25.4112 82.306 25.4112C81.6424 25.4112 81.1189 25.566 80.7355 25.8757C80.3668 26.1706 80.1825 26.554 80.1825 27.0259C80.1825 27.4388 80.3078 27.7779 80.5585 28.0434C80.8092 28.3088 81.1189 28.5226 81.4875 28.6848C81.8709 28.847 82.3944 29.0314 83.058 29.2378C84.0165 29.5475 84.7907 29.8498 85.3806 30.1447C85.9704 30.4249 86.4791 30.8673 86.9068 31.4719C87.3344 32.0765 87.5483 32.8728 87.5483 33.8608C87.5483 35.5271 87.069 36.751 86.1105 37.5326C85.1667 38.2994 83.8617 38.6828 82.1954 38.6828Z" fill="white"/>
<path d="M3.7603 53.8993H0V51.3777H10.3519V53.8993H6.59158V66.5516H3.7603V53.8993Z" fill="white"/>
<path d="M15.7927 51.3777H18.624V57.5269H23.4018V51.3777H26.2331V66.5516H23.4018V60.0485H18.624V66.5516H15.7927V51.3777Z" fill="white"/>
<path d="M36.2045 51.3777H39.5002L44.3886 66.5516H41.491L40.562 63.5655H34.9658L34.0589 66.5516H31.3161L36.2045 51.3777ZM39.7878 61.0439L38.2616 55.9785C38.1141 55.4771 37.9666 54.7914 37.8192 53.9214H37.7307C37.5832 54.8504 37.4358 55.5361 37.2883 55.9785L35.7399 61.0439H39.7878Z" fill="white"/>
<path d="M50.9852 53.8993H47.2249V51.3777H57.5768V53.8993H53.8165V66.5516H50.9852V53.8993Z" fill="white"/>
<path d="M0 78.542H3.98149L5.86164 86.9031C5.99436 87.5372 6.19343 88.6801 6.45887 90.3316H6.54734C6.75379 88.6063 6.92337 87.4635 7.05609 86.9031L8.91412 78.542H12.7629V93.7159H10.1528V84.0497C10.1528 83.6221 10.1897 82.811 10.2634 81.6166H10.1749L9.64406 84.0055L7.5206 93.7159H5.06534L2.91976 83.9612L2.3889 81.6166H2.30042C2.37415 82.8553 2.41102 83.6663 2.41102 84.0497V93.7159H0V78.542Z" fill="white"/>
<path d="M21.2483 78.542H24.5441L29.4325 93.7159H26.5348L25.6058 90.7298H20.0096L19.1027 93.7159H16.3599L21.2483 78.542ZM24.8316 88.2082L23.3054 83.1428C23.1579 82.6415 23.0105 81.9558 22.863 81.0857H22.7745C22.6271 82.0147 22.4796 82.7004 22.3321 83.1428L20.7838 88.2082H24.8316Z" fill="white"/>
<path d="M34.7019 81.0636H30.9416V78.542H41.2935V81.0636H37.5332V93.7159H34.7019V81.0636Z" fill="white"/>
<path d="M48.2163 81.0636H44.456V78.542H54.8079V81.0636H51.0476V93.7159H48.2163V81.0636Z" fill="white"/>
<path d="M58.9216 78.542H68.5878V81.0636H61.7529V84.6912H67.6145V87.2128H61.7529V91.1943H68.7205V93.7159H58.9216V78.542Z" fill="white"/>
<path d="M73.4513 78.542H79.7996C81.2889 78.542 82.4318 78.9401 83.2281 79.7364C84.0391 80.5327 84.4446 81.5797 84.4446 82.8774C84.4446 83.7917 84.2161 84.588 83.7589 85.2663C83.3165 85.9446 82.6972 86.446 81.9009 86.7704L84.8207 93.7159H81.7461L79.2244 87.3898H76.2826V93.7159H73.4513V78.542ZM79.4014 84.8903C80.065 84.8903 80.559 84.7207 80.8834 84.3815C81.2226 84.0276 81.3922 83.5262 81.3922 82.8774C81.3922 82.3023 81.2373 81.8599 80.9276 81.5502C80.618 81.2258 80.1461 81.0636 79.512 81.0636H76.2826V84.8903H79.4014Z" fill="white"/>
<path d="M68.5237 57.4324H87.9267V59.7607H68.5237V57.4324Z" fill="white"/>
</svg>
