<svg width="278" height="115" viewBox="0 0 278 115" fill="none" xmlns="http://www.w3.org/2000/svg">
<path d="M143.819 113C141.632 113 139.445 113 137.34 113H137.421C134.667 113 131.913 113 129.078 112.904C126.082 112.809 123.004 112.713 120.007 112.618C114.257 112.427 108.506 112.14 102.837 111.758C97.086 111.375 91.4165 110.897 85.747 110.324C79.9155 109.751 74.1649 109.082 68.3334 108.317C66.9566 108.126 65.5797 107.935 64.2028 107.744C62.7449 107.552 61.287 107.361 59.9101 107.075C56.9944 106.597 54.1596 106.023 51.3249 105.354C48.5711 104.781 45.8983 104.112 43.1445 103.443C41.8487 103.156 40.5528 102.774 39.2569 102.392C37.961 102.009 36.6651 101.627 35.3692 101.245C33.9923 100.767 32.6964 100.289 31.3195 99.8112C29.9427 99.3334 28.6468 98.76 27.2699 98.1866C25.893 97.6131 24.5161 96.9441 23.1392 96.2751C21.8433 95.6061 20.5474 94.8416 19.2516 94.077C18.0367 93.3124 16.9028 92.4523 15.7688 91.5922C14.6349 90.732 13.501 89.7763 12.3671 88.8206C11.3142 87.8649 10.4233 86.9092 9.45137 85.8579C8.96542 85.3801 8.56045 84.8067 8.15548 84.3288C7.9125 84.0421 7.66952 83.7554 7.50754 83.4687C7.26456 83.182 7.02158 82.7997 6.7786 82.513C6.37363 81.9395 5.96867 81.2705 5.64469 80.6971C5.23973 80.0281 4.91576 79.2636 4.59178 78.5946C4.26781 77.9256 4.02483 77.2566 3.78185 76.492C3.70086 76.3009 3.70086 76.2053 3.61986 76.0142V75.9186C3.53887 75.7274 3.53887 75.6319 3.45788 75.4407C3.45788 75.3452 3.37688 75.2496 3.37688 75.154C3.2149 74.7717 3.1339 74.2939 2.97192 73.9116C2.80993 73.2426 2.64795 72.5736 2.48596 71.8091C2.40497 71.4268 2.40497 71.1401 2.32397 70.7578C2.24298 70.2799 2.24298 69.8021 2.16199 69.3242C2 68.3685 2 67.6039 2 66.8394C2 65.9792 2.08099 65.1191 2.16199 64.259C2.24298 63.3988 2.32397 62.6343 2.48596 61.7741C2.56695 61.0096 2.72894 60.3406 2.89093 59.6716C3.2149 58.3336 3.61986 56.9 4.02483 55.562C4.26781 54.893 4.51079 54.2241 4.75377 53.5551C5.07774 52.7905 5.40171 52.1215 5.72569 51.3569C6.37363 49.9234 7.10257 48.5854 7.83151 47.2474C8.64144 45.8138 9.45138 44.4758 10.3423 43.2334C11.1522 41.991 12.0432 40.7486 12.9341 39.6017C14.7159 37.308 16.5788 35.0144 18.6036 32.9118C19.5755 31.8605 20.6284 30.8092 21.6813 29.8535C22.8153 28.8023 24.1111 27.8465 25.326 26.9864C26.5409 26.1263 27.6748 25.3617 28.8897 24.5971C30.0236 23.9282 31.2385 23.2592 32.3725 22.5902C33.5874 22.0167 34.8022 21.4433 36.0171 20.8699C37.394 20.2965 38.7709 19.723 40.2288 19.2452C42.8206 18.3851 45.4934 17.6205 48.1661 16.9515C50.8389 16.2825 53.5117 15.7091 56.1845 15.1357C59.3432 14.4667 62.5019 13.8932 65.5797 13.4154C68.7384 12.842 71.9781 12.3641 75.1369 11.8863H75.0559C75.2989 11.8863 75.5418 11.7907 75.7848 11.7907H75.7038C81.2924 10.9305 86.9619 10.2616 92.6314 9.49699C97.977 8.82799 103.322 8.159 108.668 7.49C114.257 6.82101 119.845 6.15201 125.434 5.48302C130.941 4.81402 136.368 4.14503 141.875 3.38047C144.386 3.09375 146.897 2.71147 149.408 2.32919C149.975 2.23362 150.461 2.13805 151.027 2.13805C151.351 2.13805 151.675 2.04248 151.999 2.04248C152.323 2.04248 152.566 1.94691 152.89 2.04248C153.214 2.04248 153.538 2.04248 153.781 2.23362C154.024 2.42476 154.186 2.80704 154.105 3.18932C154.024 3.47604 153.781 3.66718 153.538 3.76275C153.376 3.85832 153.133 3.85832 152.971 3.85832C152.647 3.95389 152.323 3.95389 151.918 4.04946C150.623 4.2406 149.408 4.43174 148.112 4.62288C145.358 5.00517 142.685 5.38745 139.931 5.76973C134.424 6.43873 128.835 7.20329 123.328 7.77671C117.82 8.44571 112.313 9.01913 106.805 9.68813C101.379 10.3571 95.9521 11.0261 90.5256 11.7907C85.423 12.4597 80.3204 13.1287 75.2179 13.8932H75.2989C75.0559 13.8932 74.8129 13.9888 74.5699 13.9888H74.6509C69.1434 14.8489 63.6358 15.7091 58.2093 16.8559C55.5365 17.4294 52.9447 18.0028 50.2719 18.5762C47.5992 19.2452 45.0074 19.9142 42.4156 20.6788C41.0387 21.1566 39.6618 21.6345 38.366 22.1123C36.9891 22.6857 35.6122 23.2592 34.2353 23.9282H34.1543C34.1543 23.9282 34.1543 23.9282 34.2353 23.9282C33.1014 24.5016 32.0485 25.075 30.9146 25.744C29.7807 26.413 28.7278 27.082 27.6748 27.751C27.6748 27.751 27.7558 27.751 27.7558 27.6554C26.7839 28.3244 25.893 28.9934 24.9211 29.6624C24.1111 30.3314 23.3012 31.0004 22.4913 31.6694C21.6004 32.5295 20.7094 33.3897 19.8995 34.2498C19.0896 35.1099 18.2796 36.0656 17.4697 36.9258C17.4697 36.9258 17.4697 36.9258 17.5507 36.8302C16.6598 37.8815 15.7688 39.0283 14.8779 40.0796C13.906 41.322 12.9341 42.66 12.0432 43.998C11.3142 45.0493 10.6663 46.1005 10.0183 47.2474C9.37038 48.2987 8.80343 49.3499 8.31747 50.4012C7.9125 51.1658 7.50754 52.0259 7.18357 52.8861C6.37363 53.9373 6.04966 54.7975 5.80668 55.562C5.5637 56.1355 5.40171 56.8045 5.15874 57.3779C4.91576 58.0469 4.75377 58.8114 4.59178 59.4804C4.4298 60.0539 4.3488 60.6273 4.26781 61.2007C4.10582 61.9653 4.02483 62.7298 3.94384 63.4944C3.86284 64.1634 3.78185 64.8324 3.78185 65.5014C3.70086 66.266 3.70086 66.935 3.61986 67.6039V67.5084C3.61986 67.8907 3.61986 68.2729 3.61986 68.6552C3.61986 69.0375 3.70086 69.4198 3.70086 69.8021C3.78185 70.1843 3.78185 70.5666 3.86284 70.9489C3.94384 71.3312 4.02483 71.7135 4.10582 72.0958C4.26781 72.6692 4.3488 73.147 4.51079 73.7205C4.67278 74.1983 4.75377 74.5806 4.91576 74.9629C4.91576 75.0584 4.99675 75.154 4.99675 75.2496C5.40171 76.3009 5.80668 77.2566 6.21165 78.3079C6.37363 78.5946 6.53562 78.9768 6.69761 79.2636C6.94059 79.6458 7.18357 80.0281 7.42654 80.506C7.66952 80.8883 7.9125 81.175 8.15548 81.5573C8.47946 81.9395 8.80343 82.4174 9.1274 82.7997C9.77535 83.5642 10.4233 84.3288 11.0712 84.9978C11.7192 85.7624 12.4481 86.4314 13.1771 87.1004C13.987 87.7693 14.7969 88.4383 15.6069 89.1073C16.4168 89.7763 17.3077 90.3498 18.1176 91.0188C18.1176 91.0188 18.1176 91.0188 18.0367 91.0188C18.3606 91.2099 18.6036 91.401 18.9276 91.6877C19.7375 92.2612 20.5474 92.739 21.3574 93.2169C22.0863 93.6947 22.8962 94.077 23.6252 94.4593C24.4351 94.8416 25.245 95.3194 26.136 95.6061C27.1889 96.084 28.1608 96.4663 29.2137 96.9441C30.9146 97.7087 32.6964 98.2821 34.4783 98.9511H34.3973C36.5031 99.6201 38.6089 100.289 40.7957 100.863C42.9826 101.436 45.0884 102.009 47.2752 102.487C49.543 103.061 51.8108 103.539 54.0786 104.016C56.2654 104.494 58.5333 104.876 60.7201 105.259C63.5548 105.737 66.3086 106.119 69.1434 106.501C72.1401 106.883 75.2179 107.266 78.2146 107.648C83.9651 108.317 89.6347 108.89 95.3852 109.368C101.217 109.846 107.048 110.228 112.88 110.515C115.714 110.706 118.468 110.802 121.303 110.897C124.3 110.993 127.215 111.089 130.212 111.184C132.237 111.184 134.181 111.28 136.206 111.28H136.125C136.287 111.28 136.449 111.28 136.611 111.28H136.53C136.935 111.28 137.34 111.28 137.745 111.28H137.664C143.414 111.28 149.084 111.375 154.834 111.184C160.504 111.089 166.254 110.993 171.924 110.802C177.512 110.611 183.101 110.42 188.77 110.133C194.602 109.846 200.514 109.464 206.346 108.89C210.719 108.508 215.012 107.935 219.305 107.361H219.224C222.14 106.883 224.974 106.406 227.809 105.832C230.644 105.259 233.479 104.494 236.232 103.539H236.151C237.123 103.252 238.095 102.87 238.986 102.583C239.958 102.201 240.849 101.914 241.821 101.532C243.603 100.863 245.385 100.002 247.085 99.1423C247.085 99.1423 247.166 99.1423 247.166 99.0467C249.839 97.7087 252.593 96.2751 255.104 94.5549C255.104 94.5549 255.023 94.5549 255.023 94.6504C255.185 94.5549 255.347 94.4593 255.509 94.3637C255.509 94.3637 255.428 94.3637 255.428 94.4593C255.509 94.3637 255.671 94.2682 255.752 94.2682C255.752 94.2682 255.671 94.2682 255.671 94.3637C256.643 93.6947 257.615 92.9302 258.505 92.1656C258.748 91.9745 258.991 91.7833 259.153 91.4966C259.315 91.3055 259.558 91.1143 259.72 90.9232C260.125 90.5409 260.449 90.1586 260.854 89.6808C261.745 88.8206 262.555 87.8649 263.365 86.9092L263.284 87.0048C263.365 86.9092 263.446 86.8136 263.527 86.7181C263.608 86.6225 263.77 86.4314 263.851 86.3358C264.58 85.4757 265.228 84.6155 265.957 83.851C266.605 82.9908 267.253 82.1307 267.82 81.2705L267.739 81.3661C268.306 80.506 268.954 79.6458 269.44 78.6901C270.088 77.6389 270.735 76.492 271.302 75.4407C271.464 75.0584 271.626 74.6762 271.869 74.2939C272.112 73.816 272.274 73.3382 272.436 72.8603C272.598 72.3825 272.76 71.9046 272.922 71.4268C273.084 70.9489 273.246 70.3755 273.327 69.8976C273.489 69.2286 273.651 68.5596 273.732 67.8906C273.894 67.2217 273.975 66.4571 274.056 65.7881C274.137 65.1191 274.218 64.4501 274.299 63.7811C274.38 63.1121 274.38 62.3476 274.38 61.6786V61.7741C274.38 61.2963 274.38 60.8184 274.38 60.3406C274.38 59.7671 274.38 59.1937 274.299 58.6203C274.299 57.569 274.137 56.6133 274.056 55.562C273.975 55.0842 273.894 54.7019 273.894 54.2241C273.813 53.6506 273.651 53.0772 273.57 52.5993C273.408 51.9304 273.246 51.2614 273.084 50.5924C272.922 49.9234 272.679 49.3499 272.436 48.681C272.193 48.012 271.95 47.4385 271.707 46.7695C271.464 46.1005 271.14 45.5271 270.897 44.8581C270.654 44.3803 270.492 43.998 270.25 43.5201C270.007 43.0423 269.683 42.5644 269.44 42.0866C268.873 41.1309 268.225 40.2707 267.577 39.315C266.929 38.4549 266.281 37.5948 265.552 36.7346C265.066 36.1612 264.58 35.5878 264.094 35.0144C263.608 34.4409 263.041 33.8675 262.474 33.3896C262.231 33.1029 261.907 32.9118 261.664 32.6251C261.34 32.3384 261.016 32.0517 260.692 31.7649C260.044 31.1915 259.315 30.7137 258.586 30.1402C257.939 29.6624 257.21 29.1845 256.562 28.7067C255.914 28.3244 255.266 27.8465 254.618 27.4643C253.97 27.082 253.322 26.6041 252.674 26.3174C251.945 25.8396 251.135 25.4573 250.406 25.075C249.191 24.406 247.895 23.8326 246.68 23.2592C245.304 22.5902 243.927 22.0167 242.55 21.3477C239.877 20.2009 237.204 19.1496 234.451 18.1939H234.531C232.669 17.6205 230.806 16.9515 228.943 16.4736C227.971 16.1869 227.08 15.9002 226.108 15.7091C225.136 15.4224 224.083 15.2312 223.111 14.9445C221.33 14.5622 219.548 14.1799 217.766 13.7977C215.741 13.4154 213.797 13.0331 211.772 12.6508C209.1 12.173 206.346 11.7907 203.592 11.504C200.676 11.1217 197.761 10.9305 194.845 10.6438C189.175 10.166 183.425 9.97484 177.755 9.7837C174.435 9.68813 171.033 9.59256 167.712 9.59256H167.793C167.307 9.59256 166.821 9.59256 166.335 9.59256H166.416C156.616 9.49699 146.735 9.68813 136.935 10.166C136.449 10.166 136.125 9.7837 136.044 9.30585C136.044 8.82799 136.368 8.25457 136.773 8.25457C141.794 8.06343 146.816 7.87229 151.837 7.77671C156.697 7.68114 161.557 7.68114 166.416 7.68114H166.335C172.086 7.77671 177.836 7.87229 183.668 8.06343C189.499 8.25457 195.25 8.63685 201.081 9.30585C206.751 9.87927 212.42 10.835 218.09 11.8863C219.386 12.173 220.682 12.3641 221.978 12.6508C223.435 12.9375 224.974 13.3198 226.432 13.7021C227.809 14.0844 229.186 14.4667 230.644 14.9445C232.021 15.3268 233.479 15.8046 234.855 16.2825C236.232 16.7604 237.69 17.2382 239.067 17.8116C240.444 18.2895 241.74 18.8629 243.117 19.4363C244.494 20.0098 245.871 20.6788 247.247 21.2522C247.976 21.6345 248.624 21.9212 249.353 22.3035C249.92 22.5902 250.568 22.8769 251.135 23.1636C252.431 23.8326 253.646 24.5016 254.942 25.2661C256.238 26.0307 257.453 26.7953 258.586 27.6554C259.801 28.5155 260.935 29.3757 262.15 30.3314C262.717 30.8092 263.203 31.1915 263.689 31.7649C263.932 32.0517 264.256 32.2428 264.499 32.5295C264.823 32.8162 265.066 33.1029 265.309 33.3896C265.795 33.9631 266.281 34.5365 266.767 35.1099C267.253 35.6833 267.739 36.3523 268.225 36.9258C268.711 37.4992 269.116 38.1682 269.521 38.7416C269.764 39.0283 269.926 39.4106 270.169 39.6973C270.411 40.0796 270.654 40.3663 270.816 40.7486C270.978 41.0353 271.221 41.4176 271.383 41.7043C271.545 41.991 271.707 42.3733 271.869 42.66C272.031 42.9467 272.193 43.329 272.355 43.6157C272.517 43.998 272.679 44.2847 272.841 44.667C273.165 45.336 273.408 46.1005 273.732 46.8651C273.975 47.5341 274.218 48.2987 274.461 48.9677C274.704 49.7322 274.947 50.5924 275.109 51.3569C275.271 52.2171 275.433 53.0772 275.595 53.8418C275.757 54.6063 275.838 55.3709 275.838 56.1355C275.919 57.0912 276 58.0469 276 59.0026C276 59.3849 276 59.7671 276 60.1494C276 60.5317 276 60.914 276 61.3918C276 62.1564 276 62.921 275.919 63.6855C275.757 65.2147 275.595 66.7438 275.271 68.2729C274.947 69.7065 274.623 71.2356 274.137 72.5736C273.894 73.3382 273.57 74.1027 273.246 74.8673C272.922 75.6319 272.517 76.3009 272.193 77.0654C271.869 77.7344 271.464 78.4034 271.059 79.0724C270.573 79.837 270.168 80.6015 269.683 81.2705C268.873 82.513 268.063 83.6598 267.172 84.8067C266.767 85.3801 266.281 85.9535 265.795 86.5269C265.552 86.8136 265.309 87.1003 265.066 87.3871C264.985 87.4826 264.985 87.4826 264.904 87.5782C264.823 87.6738 264.742 87.8649 264.58 87.9605L264.499 88.0561C264.418 88.1516 264.256 88.3428 264.175 88.4383C263.122 89.5852 262.069 90.732 261.016 91.7833C260.773 92.07 260.449 92.3567 260.206 92.6434C259.963 92.9302 259.639 93.1213 259.396 93.408C259.153 93.5992 258.829 93.8859 258.586 94.077C258.262 94.3637 257.939 94.5549 257.615 94.8416C256.481 95.7017 255.266 96.4663 253.97 97.2308C251.54 98.76 248.948 100.098 246.437 101.34C243.846 102.487 241.254 103.634 238.662 104.494C235.989 105.45 233.236 106.214 230.563 106.883C227.89 107.552 225.136 108.126 222.383 108.508C219.548 108.986 216.632 109.368 213.797 109.751C211.124 110.133 208.452 110.42 205.779 110.611C202.944 110.897 200.028 111.089 197.194 111.28C191.362 111.662 185.531 111.949 179.699 112.235C173.949 112.427 168.279 112.618 162.529 112.809C158.398 112.904 154.186 113 150.056 113C148.76 113 147.545 113 146.249 113C145.358 113 144.548 113 143.819 113Z" fill="white" stroke="#4C6F5E" stroke-width="3"/>
</svg>
