<svg width="140" height="56" viewBox="0 0 140 56" fill="none" xmlns="http://www.w3.org/2000/svg">
<g clip-path="url(#clip0)">
<path fill-rule="evenodd" clip-rule="evenodd" d="M0 28C0 48.8673 7.17873 56 28.1497 56C49.1207 56 56.2995 48.8682 56.2995 28C56.2995 7.13177 49.1212 0 28.1497 0C7.17826 0 0 7.13271 0 28Z" fill="#2F2F2F"/>
<path fill-rule="evenodd" clip-rule="evenodd" d="M132.164 33.404C134.441 33.404 136.269 32.2956 136.269 29.1693V28.5156L131.911 29.1693C130.73 29.3398 129.831 30.0219 129.831 31.3293C129.859 32.4093 130.73 33.404 132.164 33.404ZM127.02 31.4714C127.02 28.9135 128.875 27.4641 131.349 27.0946L135.2 26.5262C136.044 26.4125 136.297 25.9578 136.297 25.4462C136.297 24.0536 135.369 22.8883 133.232 22.8883C131.293 22.8883 130.196 24.1104 130 25.7872L127.329 25.162C127.61 22.4052 130.056 20.501 133.12 20.501C137.365 20.501 139.024 22.9452 139.024 25.7588V32.9492C139.024 34.1998 139.136 34.9387 139.192 35.3082H136.465C136.409 34.9387 136.325 34.3987 136.325 33.3756C135.706 34.3987 134.273 35.7629 131.743 35.7629C128.875 35.7629 127.02 33.745 127.02 31.4714ZM117.405 32.2671C119.795 32.2671 121.453 30.4482 121.453 27.663C121.453 24.8778 119.795 23.0588 117.405 23.0588C114.959 23.0588 113.3 24.8778 113.3 27.663C113.3 30.4766 114.903 32.2671 117.405 32.2671ZM110.433 36.1039L113.132 35.4787C113.329 37.4681 114.847 39.0029 117.011 39.0029C119.991 39.0029 121.369 37.4397 121.369 34.3419V32.2671C120.694 33.5745 119.148 34.6261 117.011 34.6261C113.216 34.6261 110.489 31.7272 110.489 27.663C110.489 23.7694 113.132 20.6715 117.011 20.6715C119.204 20.6715 120.666 21.4957 121.397 22.9452V20.9557H124.152V34.2566C124.152 37.8944 122.381 41.447 117.039 41.447C113.441 41.447 110.798 39.1734 110.433 36.1039ZM98.1476 27.0093V35.3082H95.3645V20.9557H98.0914V23.0304C99.1316 21.2399 100.818 20.5578 102.477 20.5578C105.879 20.5578 107.565 23.0304 107.565 26.242V35.365H104.782V26.6967C104.782 24.7072 103.967 23.0873 101.465 23.0873C99.2722 23.0588 98.1476 24.8209 98.1476 27.0093ZM89.8543 30.3914L92.2439 31.2156C91.4568 33.745 89.1796 35.7629 85.8623 35.7629C82.039 35.7629 78.7217 32.9492 78.7217 28.0893C78.6935 23.5704 81.9265 20.501 85.4969 20.501C89.8825 20.501 92.3283 23.542 92.3283 28.0325C92.3283 28.4019 92.3002 28.743 92.2721 28.9419H81.5611C81.6173 31.4998 83.4446 33.3187 85.8342 33.3187C88.1676 33.2903 89.3202 32.0114 89.8543 30.3914ZM81.6735 26.6683H89.4608C89.4045 24.5936 88.0832 23.002 85.5531 23.002C83.1916 22.9736 81.786 24.7925 81.6735 26.6683ZM77.569 20.8136V23.7978C77.1473 23.7409 76.7538 23.7125 76.3602 23.7125C74.0268 23.7125 72.4525 24.963 72.4525 28.1461V35.3366H69.6693V20.9557H72.3963V23.4567C73.4364 21.2399 75.2075 20.6999 76.6413 20.6999C77.0349 20.6999 77.4285 20.7568 77.569 20.8136Z" fill="#2F2F2F"/>
</g>
<defs>
<clipPath id="clip0">
<rect width="139.192" height="56" fill="white"/>
</clipPath>
</defs>
</svg>
