<svg width="30" height="29" viewBox="0 0 30 29" fill="none" xmlns="http://www.w3.org/2000/svg">
<path d="M15.2906 0.199951C7.34159 0.199951 0.890625 6.65092 0.890625 14.6C0.890625 22.549 7.34159 29 15.2906 29C23.2397 29 29.6906 22.549 29.6906 14.6C29.6906 6.65092 23.2397 0.199951 15.2906 0.199951ZM21.1377 21.3877C20.8939 21.3877 20.7429 21.3122 20.5164 21.1787C16.8932 18.9954 12.6777 18.9025 8.5145 19.7561C8.28804 19.8141 7.99192 19.907 7.82353 19.907C7.2603 19.907 6.90611 19.46 6.90611 18.9896C6.90611 18.3916 7.2603 18.107 7.69579 18.0141C12.4513 16.9632 17.3113 17.0561 21.4571 19.5354C21.8113 19.7619 22.0203 19.9651 22.0203 20.4935C22.0203 21.0219 21.608 21.3877 21.1377 21.3877ZM22.6997 17.5787C22.3977 17.5787 22.1945 17.4451 21.9855 17.3348C18.3564 15.1864 12.9448 14.3212 8.13127 15.6277C7.85256 15.7032 7.70159 15.7787 7.4403 15.7787C6.81901 15.7787 6.31385 15.2735 6.31385 14.6522C6.31385 14.0309 6.61579 13.6187 7.21385 13.4503C8.82804 12.9974 10.4771 12.6606 12.8926 12.6606C16.6609 12.6606 20.3016 13.5954 23.17 15.3025C23.6403 15.5812 23.8261 15.9412 23.8261 16.4464C23.8203 17.0735 23.3326 17.5787 22.6997 17.5787ZM24.4997 13.1541C24.1977 13.1541 24.0119 13.0787 23.7506 12.9277C19.6164 10.46 12.2248 9.86769 7.4403 11.2032C7.23127 11.2612 6.96998 11.3541 6.69127 11.3541C5.92482 11.3541 5.33837 10.7561 5.33837 9.98382C5.33837 9.19414 5.82611 8.74705 6.34869 8.59608C8.39256 7.99802 10.6803 7.7135 13.1713 7.7135C17.41 7.7135 21.8519 8.59608 25.0977 10.489C25.5506 10.7503 25.8468 11.1103 25.8468 11.8012C25.8468 12.5909 25.208 13.1541 24.4997 13.1541Z" fill="#2F2F2F"/>
</svg>
