<svg width="120" height="120" viewBox="0 0 120 120" fill="none" xmlns="http://www.w3.org/2000/svg">
<rect width="120" height="120" fill="#4C6F5E"/>
<path d="M3.808 25.9872H0V23.4336H10.4832V25.9872H6.6752V38.8H3.808V25.9872Z" fill="white"/>
<path d="M15.7691 23.4336H18.6363V29.6608H23.4747V23.4336H26.3419V38.8H23.4747V32.2144H18.6363V38.8H15.7691V23.4336Z" fill="white"/>
<path d="M32.6093 23.4336H42.3981V25.9872H35.4765V29.6608H41.4125V32.2144H35.4765V36.2464H42.5325V38.8H32.6093V23.4336Z" fill="white"/>
<path d="M0 52.6335H5.488C7.02613 52.6335 8.21333 53.0591 9.0496 53.9103C9.88587 54.7615 10.304 55.8741 10.304 57.248C10.304 58.2037 10.1024 59.0474 9.6992 59.7792C9.296 60.496 8.72853 61.056 7.9968 61.4592C7.28 61.8474 6.44373 62.0416 5.488 62.0416H2.8672V68H0V52.6335ZM5.1968 59.5104C5.88373 59.5104 6.41387 59.3162 6.7872 58.928C7.16053 58.5248 7.3472 57.9648 7.3472 57.248C7.3472 56.6207 7.15307 56.1205 6.7648 55.7471C6.39147 55.3738 5.8688 55.1871 5.1968 55.1871H2.8672V59.5104H5.1968Z" fill="white"/>
<path d="M20.2916 68.2688C18.2607 68.2688 16.6852 67.6117 15.5652 66.2976C14.4601 64.9685 13.9076 62.9749 13.9076 60.3168C13.9076 57.6586 14.4601 55.6725 15.5652 54.3583C16.6852 53.0293 18.2607 52.3647 20.2916 52.3647C22.3225 52.3647 23.8905 53.0293 24.9956 54.3583C26.1156 55.6725 26.6756 57.6586 26.6756 60.3168C26.6756 62.9749 26.1156 64.9685 24.9956 66.2976C23.8905 67.6117 22.3225 68.2688 20.2916 68.2688ZM20.2916 65.8048C21.4116 65.8048 22.2628 65.3792 22.8452 64.528C23.4276 63.6618 23.7188 62.4448 23.7188 60.8768V59.7568C23.7188 58.1888 23.4276 56.9791 22.8452 56.1279C22.2628 55.2618 21.4116 54.8287 20.2916 54.8287C19.1716 54.8287 18.3204 55.2618 17.738 56.1279C17.1556 56.9791 16.8644 58.1888 16.8644 59.7568V60.8768C16.8644 62.4448 17.1556 63.6618 17.738 64.528C18.3204 65.3792 19.1716 65.8048 20.2916 65.8048Z" fill="white"/>
<path d="M35.6512 68.2688C34.6805 68.2688 33.792 68.0896 32.9856 67.7312C32.1792 67.3578 31.537 66.8128 31.0592 66.096C30.5813 65.3792 30.3424 64.513 30.3424 63.4976L30.3648 63.0048H33.344L33.3216 63.3632C33.3216 64.1098 33.5381 64.7072 33.9712 65.1552C34.4042 65.5882 35.009 65.8048 35.7856 65.8048C36.577 65.8048 37.1594 65.633 37.5328 65.2896C37.921 64.9312 38.1152 64.4981 38.1152 63.9904C38.1152 63.4826 37.9808 63.072 37.712 62.7584C37.4432 62.4298 37.1072 62.176 36.704 61.9968C36.3157 61.8176 35.7632 61.6085 35.0464 61.3696C34.1056 61.0709 33.344 60.7722 32.7616 60.4736C32.1792 60.1749 31.6789 59.7194 31.2608 59.1072C30.8576 58.4949 30.656 57.681 30.656 56.6655C30.656 55.7397 30.8874 54.9557 31.3504 54.3135C31.8133 53.6565 32.433 53.1711 33.2096 52.8575C33.9861 52.529 34.8448 52.3647 35.7856 52.3647C37.249 52.3647 38.4437 52.7455 39.3696 53.5071C40.3104 54.2538 40.7808 55.3813 40.7808 56.8896V57.1583H37.8464V56.9567C37.8464 56.2997 37.6597 55.7845 37.2864 55.4111C36.913 55.0229 36.4053 54.8287 35.7632 54.8287C35.0912 54.8287 34.561 54.9855 34.1728 55.2991C33.7994 55.5978 33.6128 55.9861 33.6128 56.4639C33.6128 56.8821 33.7397 57.2256 33.9936 57.4944C34.2474 57.7632 34.561 57.9797 34.9344 58.144C35.3226 58.3082 35.8528 58.4949 36.5248 58.704C37.4954 59.0176 38.2794 59.3237 38.8768 59.6224C39.4741 59.9061 39.9893 60.3541 40.4224 60.9664C40.8554 61.5786 41.072 62.385 41.072 63.3856C41.072 65.073 40.5866 66.3125 39.616 67.104C38.6602 67.8805 37.3386 68.2688 35.6512 68.2688Z" fill="white"/>
<path d="M50.1412 68.2688C49.1705 68.2688 48.282 68.0896 47.4756 67.7312C46.6692 67.3578 46.027 66.8128 45.5492 66.096C45.0713 65.3792 44.8324 64.513 44.8324 63.4976L44.8548 63.0048H47.834L47.8116 63.3632C47.8116 64.1098 48.0281 64.7072 48.4612 65.1552C48.8942 65.5882 49.499 65.8048 50.2756 65.8048C51.067 65.8048 51.6494 65.633 52.0228 65.2896C52.411 64.9312 52.6052 64.4981 52.6052 63.9904C52.6052 63.4826 52.4708 63.072 52.202 62.7584C51.9332 62.4298 51.5972 62.176 51.194 61.9968C50.8057 61.8176 50.2532 61.6085 49.5364 61.3696C48.5956 61.0709 47.834 60.7722 47.2516 60.4736C46.6692 60.1749 46.1689 59.7194 45.7508 59.1072C45.3476 58.4949 45.146 57.681 45.146 56.6655C45.146 55.7397 45.3774 54.9557 45.8404 54.3135C46.3033 53.6565 46.923 53.1711 47.6996 52.8575C48.4761 52.529 49.3348 52.3647 50.2756 52.3647C51.739 52.3647 52.9337 52.7455 53.8596 53.5071C54.8004 54.2538 55.2708 55.3813 55.2708 56.8896V57.1583H52.3364V56.9567C52.3364 56.2997 52.1497 55.7845 51.7764 55.4111C51.403 55.0229 50.8953 54.8287 50.2532 54.8287C49.5812 54.8287 49.051 54.9855 48.6628 55.2991C48.2894 55.5978 48.1028 55.9861 48.1028 56.4639C48.1028 56.8821 48.2297 57.2256 48.4836 57.4944C48.7374 57.7632 49.051 57.9797 49.4244 58.144C49.8126 58.3082 50.3428 58.4949 51.0148 58.704C51.9854 59.0176 52.7694 59.3237 53.3668 59.6224C53.9641 59.9061 54.4793 60.3541 54.9124 60.9664C55.3454 61.5786 55.562 62.385 55.562 63.3856C55.562 65.073 55.0766 66.3125 54.106 67.104C53.1502 67.8805 51.8286 68.2688 50.1412 68.2688Z" fill="white"/>
<path d="M59.7704 52.6335H62.6376V68H59.7704V52.6335Z" fill="white"/>
<path d="M67.3313 52.6335H73.9393C74.7457 52.6335 75.4624 52.7978 76.0897 53.1263C76.7318 53.4399 77.232 53.8879 77.5904 54.4703C77.9489 55.0378 78.1281 55.6949 78.1281 56.4415C78.1281 57.2928 77.9041 58.032 77.456 58.6592C77.023 59.2714 76.463 59.697 75.7761 59.936V60.0256C76.5675 60.2645 77.2171 60.7274 77.7249 61.4144C78.2326 62.1013 78.4865 62.9226 78.4865 63.8784C78.4865 64.7146 78.2774 65.4464 77.8593 66.0736C77.4561 66.6858 76.911 67.1637 76.2241 67.5072C75.5371 67.8357 74.7755 68 73.9393 68H67.3313V52.6335ZM73.1553 58.8608C73.8123 58.8608 74.3126 58.6816 74.6561 58.3232C75.0145 57.9648 75.1937 57.5093 75.1937 56.9567C75.1937 56.3893 75.0219 55.9562 74.6785 55.6575C74.335 55.3439 73.872 55.1871 73.2896 55.1871H70.1984V58.8608H73.1553ZM73.4688 65.4464C74.0811 65.4464 74.5814 65.2821 74.9697 64.9536C75.3579 64.6101 75.5521 64.1322 75.5521 63.52C75.5521 62.8928 75.3579 62.385 74.9697 61.9968C74.5963 61.5936 74.0512 61.392 73.3344 61.392H70.1984V65.4464H73.4688Z" fill="white"/>
<path d="M82.8275 52.6335H85.6947V65.312H92.1907V68H82.8275V52.6335Z" fill="white"/>
<path d="M96.2894 52.6335H106.078V55.1871H99.1566V58.8608H105.093V61.4144H99.1566V65.4464H106.213V68H96.2894V52.6335Z" fill="white"/>
<path d="M57.4 81.8337H59.9312L64.68 90.3009C64.8294 90.5399 65.0608 91.0177 65.3744 91.7345L65.4416 91.6673L65.4192 90.3905V81.8337H67.9728V97.2002H65.4192L60.6704 88.7329C60.551 88.5388 60.3195 88.0609 59.976 87.2993L59.8864 87.3665L59.9312 88.6433V97.2002H57.4V81.8337Z" fill="white"/>
<path d="M79.1459 97.469C77.1149 97.469 75.5395 96.8119 74.4195 95.4978C73.3144 94.1687 72.7619 92.1751 72.7619 89.5169C72.7619 86.8588 73.3144 84.8727 74.4195 83.5585C75.5395 82.2295 77.1149 81.5649 79.1459 81.5649C81.1768 81.5649 82.7448 82.2295 83.8499 83.5585C84.9699 84.8727 85.5299 86.8588 85.5299 89.5169C85.5299 92.1751 84.9699 94.1687 83.8499 95.4978C82.7448 96.8119 81.1768 97.469 79.1459 97.469ZM79.1459 95.005C80.2659 95.005 81.1171 94.5794 81.6995 93.7282C82.2819 92.862 82.5731 91.6449 82.5731 90.0769V88.9569C82.5731 87.3889 82.2819 86.1793 81.6995 85.3281C81.1171 84.462 80.2659 84.0289 79.1459 84.0289C78.0259 84.0289 77.1747 84.462 76.5923 85.3281C76.0099 86.1793 75.7187 87.3889 75.7187 88.9569V90.0769C75.7187 91.6449 76.0099 92.862 76.5923 93.7282C77.1747 94.5794 78.0259 95.005 79.1459 95.005Z" fill="white"/>
<path d="M88.9726 81.8337H91.8174L93.6542 91.2865C93.7438 91.7047 93.8409 92.4215 93.9454 93.437H94.035C94.1396 92.4215 94.2366 91.7047 94.3262 91.2865L96.1854 81.8337H99.4334L101.27 91.2865C101.345 91.6748 101.442 92.3916 101.561 93.437H101.651C101.741 92.4812 101.838 91.7644 101.942 91.2865L103.824 81.8337H106.288L102.95 97.2002H100.061L97.9774 87.4113C97.858 86.9185 97.7534 86.1943 97.6638 85.2385H97.5742C97.4548 86.2689 97.3502 86.9932 97.2606 87.4113L95.1998 97.2002H92.3102L88.9726 81.8337Z" fill="white"/>
<rect y="88" width="42.4" height="2.40002" fill="white"/>
</svg>
